<?xml version="1.0" encoding="UTF-8"?>
<svg width="128px" height="128px" viewBox="0 0 128 128" version="1.1" xmlns="http://www.w3.org/2000/svg" xmlns:xlink="http://www.w3.org/1999/xlink">
    <defs>
        <linearGradient x1="64.9438679%" y1="65.2628613%" x2="100%" y2="30.658616%" id="linearGradient-1">
            <stop stop-color="#FFB200" stop-opacity="0.05" offset="0%"></stop>
            <stop stop-color="#FFB200" stop-opacity="0.4" offset="100%"></stop>
        </linearGradient>
        <circle id="path-2" cx="29" cy="29" r="29"></circle>
        <filter x="-25.9%" y="-25.9%" width="151.7%" height="151.7%" filterUnits="objectBoundingBox" id="filter-3">
            <feOffset dx="0" dy="0" in="SourceAlpha" result="shadowOffsetOuter1"></feOffset>
            <feGaussianBlur stdDeviation="5" in="shadowOffsetOuter1" result="shadowBlurOuter1"></feGaussianBlur>
            <feColorMatrix values="0 0 0 0 0   0 0 0 0 0   0 0 0 0 0  0 0 0 0.2 0" type="matrix" in="shadowBlurOuter1"></feColorMatrix>
        </filter>
        <circle id="path-4" cx="29" cy="29" r="29"></circle>
        <filter x="-25.9%" y="-25.9%" width="151.7%" height="151.7%" filterUnits="objectBoundingBox" id="filter-5">
            <feOffset dx="0" dy="0" in="SourceAlpha" result="shadowOffsetOuter1"></feOffset>
            <feGaussianBlur stdDeviation="5" in="shadowOffsetOuter1" result="shadowBlurOuter1"></feGaussianBlur>
            <feColorMatrix values="0 0 0 0 0   0 0 0 0 0   0 0 0 0 0  0 0 0 0.2 0" type="matrix" in="shadowBlurOuter1"></feColorMatrix>
        </filter>
    </defs>
    <g id="Artboard" stroke="none" stroke-width="1" fill="none" fill-rule="evenodd">
        <g id="Group-2" transform="translate(-302, -16)">
            <g id="Group">
                <rect id="Rectangle" fill="#0A0F1D" x="0" y="0" width="470.999581" height="172"></rect>
                <path d="M470.999581,21.0912093 L470.999581,171.999908 L228.363433,171.999908 C248.599071,145.346562 274.768637,127.716284 306.872133,119.109074 C355.530945,106.063248 347.869381,79.8639017 392.101523,52.7444446 C421.074284,34.9807658 447.373637,24.4296874 470.999581,21.0912093 Z" id="Path" fill="url(#linearGradient-1)"></path>
                <g id="lines" opacity="0.12" transform="translate(252.2912, 30.6244)" fill="#FFFFFF">
                    <rect id="Rectangle" x="146.791926" y="18.0390244" width="1" height="122.917073"></rect>
                    <rect id="Rectangle" x="110.093944" y="46.9853659" width="1" height="93.9707317"></rect>
                    <rect id="Rectangle" x="73.3959629" y="81.3853659" width="1" height="59.5707317"></rect>
                    <rect id="Rectangle" x="21.8288576" y="101.490022" width="196.879504" height="1"></rect>
                    <rect id="Rectangle" x="116.280645" y="40.4538498" width="102.427716" height="1"></rect>
                </g>
                <path d="M471,20.7273271 L471,21.5751613 L470.898023,21.5899273 C447.703553,24.9744298 421.920324,35.2981307 393.551956,52.5659474 L392.673941,53.1021067 C382.995096,59.0313186 375.282326,65.2071958 368.374473,72.2190019 C365.856553,74.7748122 363.481632,77.3975092 360.905424,80.4278325 L359.978732,81.5252691 L358.793212,82.9538036 L352.977676,90.0428989 L352.390361,90.7507556 L351.793986,91.4638362 L351.197311,92.1710092 L350.599446,92.8727585 C345.359299,98.9918139 341.177972,103.02125 335.873086,106.809184 C328.468755,112.096218 319.505584,116.187 307.759273,119.379903 L307.261291,119.514281 C275.322882,128.069946 249.274771,145.562113 229.104892,171.999907 L228.050693,171.999907 L228.221411,171.774282 C248.533386,145.03132 274.81162,127.338258 307.043914,118.703867 C318.942043,115.516594 327.962022,111.426859 335.384992,106.126515 C341.303572,101.900375 345.81488,97.3621702 352.037456,89.8622688 L358.051438,82.5339184 L359.25842,81.0782296 L359.483456,80.8096776 L360.266324,79.8837311 C362.854702,76.83912 365.242793,74.201892 367.776197,71.6303639 C374.731118,64.5707817 382.497225,58.3521957 392.235166,52.3867825 C421.130749,34.6854932 447.384437,24.1306351 471,20.7273271 Z" id="Path" fill="#FFB200" fill-rule="nonzero"></path>
            </g>
            <g id="dots" transform="translate(343.5681, 49.7451)" fill="#101218" stroke="#FFB200">
                <ellipse id="Oval" stroke-width="2" cx="1.61936613" cy="48.3770866" rx="1.61936613" ry="1.61838461"></ellipse>
                <ellipse id="Oval" cx="51.1554144" cy="1.61838461" rx="1.61936613" ry="1.61838461"></ellipse>
            </g>
        </g>
        <g id="Group-2" transform="translate(12, 12)">
            <g id="Branding/Logo" fill="#FFB200">
                <path d="M14,0 C21.7319865,0 28,6.2680135 28,14 C28,21.7319865 21.7319865,28 14,28 C11.3285245,28 8.83181346,27.2517441 6.70801375,25.9533791 L9.546072,21 L14.6313725,21 C18.4973658,21 21.6313725,17.8659932 21.6313725,14 C21.6313725,10.1340068 18.4973658,7 14.6313725,7 L12.0784314,7 C11.2445897,7 10.5686275,7.67596224 10.5686275,8.50980392 C10.5686275,9.3436456 11.2445897,10.0196078 12.0784314,10.0196078 L14.6313725,10.0196078 C16.8296824,10.0196078 18.6117647,11.8016901 18.6117647,14 C18.6117647,16.1983099 16.8296824,17.9803922 14.6313725,17.9803922 L9.14117647,17.9803922 C8.43741014,17.9803922 7.84610828,18.4619098 7.67875875,19.113453 C7.66650611,19.1486145 7.6554542,19.1844842 7.64566231,19.2210281 L5.97099907,25.4703382 C2.3603873,22.9382987 0,18.7447983 0,14 C0,6.2680135 6.2680135,0 14,0 Z M14.6313725,12.0784314 L11.0352941,12.0784314 C9.97404107,12.0784314 9.11372549,12.938747 9.11372549,14 C9.11372549,15.061253 9.97404107,15.9215686 11.0352941,15.9215686 L14.6313725,15.9215686 C15.6926256,15.9215686 16.5529412,15.061253 16.5529412,14 C16.5529412,12.938747 15.6926256,12.0784314 14.6313725,12.0784314 Z" id="logo"></path>
            </g>
            <g id="Group-4" transform="translate(0, 46)">
                <g id="Oval">
                    <use fill="black" fill-opacity="1" filter="url(#filter-3)" xlink:href="#path-2"></use>
                    <use fill="#FFFFFF" fill-rule="evenodd" xlink:href="#path-2"></use>
                </g>
                <g id="Vendor/Mollie" transform="translate(13, 18.7333)" fill="#000000" fill-rule="nonzero">
                    <path d="M32,9.2071952 L32,20.5858827 L27.6725625,20.5858827 L27.6725625,9.0547577 C27.6555,6.4633202 25.5284375,4.3386952 22.93175,4.3157577 C20.2779375,4.2925077 18.10675,6.5306327 18.10675,9.1841952 L18.10675,20.5858827 L13.7793125,20.5858827 L13.7793125,9.0854452 C13.7624375,6.4815077 11.6446875,4.3548827 9.049125,4.3305077 C6.3894375,4.3055077 4.2135,6.5479452 4.2135,9.2076327 L4.2135,20.5858827 L0,20.5858827 L0,9.0547577 C0,4.0538827 4.051875,0.00807020157 9.054375,0.00807020157 C11.827375,0.00807020157 14.30875,1.2640077 15.97125,3.2270702 C15.9689375,3.2293202 15.9735,3.2293202 15.97125,3.2270702 C17.68625,1.1975702 20.2979375,-0.0785547984 23.1801875,0.00375770157 C28.11325,0.144820202 32,4.2727577 32,9.2071952 Z" id="Path"></path>
                </g>
                <g id="Group-3" transform="translate(46, 0)">
                    <g id="Oval">
                        <use fill="black" fill-opacity="1" filter="url(#filter-5)" xlink:href="#path-4"></use>
                        <use fill="#FFFFFF" fill-rule="evenodd" xlink:href="#path-4"></use>
                    </g>
                    <g id="Vendor/Mollie" transform="translate(10.4833, 19.2833)" fill="#7F54B3">
                        <path d="M33.4152227,0 C35.3135122,0 36.8501082,1.52836165 36.8501082,3.41634794 L36.8501082,14.8041872 C36.8501082,16.6921256 35.3135122,18.220516 33.4152227,18.220516 L22.6585693,18.220516 L24.1349954,21.8166667 L17.6417437,18.220516 L3.4351286,18.220516 C1.53688716,18.220516 0.000108247055,16.6921256 0.000108247055,14.8041872 L0.000108247055,3.41634794 C-0.0148473053,1.54334681 1.52182061,0 3.42006204,0 Z M15.8098775,2.02166465 C15.3715726,2.05154342 15.0390288,2.26067575 14.8123427,2.67894994 C13.8752704,4.36696701 13.2101827,7.1006648 12.817273,10.8949636 C12.2428791,9.46090656 11.7591791,7.77287994 11.3813367,5.78609422 C11.215113,4.90474676 10.8070394,4.48647256 10.1419518,4.53129072 C9.68853122,4.56115995 9.31067916,4.8599286 9.00838592,5.42757757 L5.69832423,11.6568246 C5.15420026,9.49077578 4.64030755,6.84671432 4.17176173,3.72462111 C4.06596199,2.94783981 3.62763776,2.58931362 2.85680835,2.64907117 C2.43359975,2.67894994 2.11619089,2.82833426 1.90459142,3.11215398 C1.69299194,3.38104385 1.61742346,3.72462111 1.66276069,4.11301653 C2.55451512,9.71489522 3.38580703,13.494226 4.1566461,15.4511425 C4.45893934,16.1681376 4.8065698,16.5117912 5.21466277,16.4819125 C5.84946119,16.4370466 6.60518462,15.5706576 7.49693905,13.8826501 C7.96548488,12.9265293 8.69098672,11.4925391 9.67342525,9.58039301 C10.4895629,12.4036985 11.6080228,14.524996 13.0137279,15.9440945 C13.4067342,16.3474102 13.8148078,16.5266829 14.2077176,16.4968041 C14.5554253,16.4669253 14.82741,16.2876527 15.0087976,15.9589862 C15.1599538,15.6751856 15.2204163,15.346519 15.1901851,14.9730821 C15.0994913,13.6137411 15.2355803,11.7165821 15.6134227,9.28164346 C16.0063324,6.77202693 16.4900325,4.96449476 17.0794937,3.88894482 C17.2004187,3.66487311 17.2457173,3.44079185 17.23065,3.17191152 C17.2004187,2.82832472 17.0492624,2.54450501 16.7621138,2.32043329 C16.4749652,2.09636158 16.1574887,1.99179542 15.8098775,2.02166465 Z M31.0906278,3.66666667 C29.651995,3.66666667 28.4831237,4.42243214 27.5689795,5.93396307 C26.7897639,7.21875664 26.4001082,8.63959843 26.4001082,10.1964498 C26.4001082,11.3603696 26.6398963,12.3579599 27.1193768,13.1893174 C27.6589,14.1416066 28.4531502,14.7159358 29.5170663,14.9426345 C29.8018625,15.0031004 30.0716241,15.0333333 30.3263511,15.0333333 C31.7799228,15.0333333 32.9487941,14.2776065 33.8479037,12.7660562 C34.627215,11.4661366 35.0167749,10.0452851 35.0167749,8.4884434 C35.0167749,7.30945545 34.7770826,6.32696227 34.2975064,5.51073093 C33.7580789,4.55847069 32.9638287,3.98409319 31.8998169,3.75735582 C31.6151164,3.6968996 31.3453548,3.66666667 31.0906278,3.66666667 Z M31.1873765,11.7820275 C31.7502974,11.2834091 32.1306336,10.5430129 32.3436491,9.54577603 C32.4045107,9.19825907 32.4501082,8.82051024 32.4501082,8.42765029 C32.4501082,7.98946667 32.3588159,7.52106082 32.1762312,7.05264531 C31.9480489,6.46336022 31.643741,6.14605583 31.2785716,6.07050027 C30.7309147,5.96473214 30.1984245,6.26693507 29.6963652,7.00732163 C29.2855982,7.58149561 29.0268879,8.18589181 28.8899979,8.80539913 C28.8138724,9.15293539 28.7834416,9.5307132 28.7834416,9.90844272 C28.7834416,10.3466167 28.8747339,10.8150129 29.0573187,11.2834091 C29.2855982,11.8726942 29.5898088,12.1899792 29.9549782,12.2655831 C30.3353144,12.3410904 30.7460814,12.1749164 31.1873765,11.7820275 Z M24.764173,5.51073093 C24.2246498,4.55847069 23.4154607,3.98409319 22.3664836,3.75735582 C22.0816873,3.6968996 21.8120214,3.66666667 21.5571987,3.66666667 C20.1186616,3.66666667 18.9497904,4.42243214 18.0356461,5.93396307 C17.2563348,7.21875664 16.8667749,8.63959843 16.8667749,10.1964498 C16.8667749,11.3603696 17.106563,12.3579599 17.5860435,13.1893174 C18.1255667,14.1416066 18.9198169,14.7159358 19.9837329,14.9426345 C20.2684334,15.0031004 20.538195,15.0333333 20.7930178,15.0333333 C22.2465895,15.0333333 23.4154607,14.2776065 24.3145703,12.7660562 C25.0938817,11.4661366 25.4834416,10.0452851 25.4834416,8.4884434 C25.4834416,7.30945545 25.2436535,6.32696227 24.764173,5.51073093 Z M22.9935519,9.54577603 C22.7806336,10.5430129 22.4002002,11.2834091 21.8372792,11.7820275 C21.3960814,12.1749164 20.9853144,12.3410904 20.6049782,12.2655831 C20.2398088,12.1899792 19.9355009,11.8726942 19.7073187,11.2834091 C19.5247339,10.8150129 19.4334416,10.3466167 19.4334416,9.90844272 C19.4334416,9.5307132 19.4638724,9.15293539 19.5399979,8.80539913 C19.6768879,8.18589181 19.9355009,7.58149561 20.3462679,7.00732163 C20.8484245,6.26693507 21.3809147,5.96473214 21.9285716,6.07050027 C22.293741,6.14605583 22.5980489,6.46336022 22.8262312,7.05264531 C23.0088159,7.52106082 23.1001082,7.98946667 23.1001082,8.42765029 C23.1001082,8.82051024 23.0696775,9.19825907 22.9935519,9.54577603 Z" id="logo"></path>
                    </g>
                </g>
            </g>
        </g>
    </g>
</svg>