<svg width="128" height="128" viewBox="0 0 128 128" fill="none" xmlns="http://www.w3.org/2000/svg">
<g clip-path="url(#clip0_553_3750)">
<rect width="128" height="128" fill="white"/>
<path d="M0 0H128V128H0V0Z" fill="#0A0F1D"/>
<path fill-rule="evenodd" clip-rule="evenodd" d="M165 8.3584V157H-74.6911C-54.7011 130.747 -28.8492 113.382 2.86459 104.904C50.9327 92.0538 43.3642 66.2481 87.0594 39.5361C115.68 22.0393 141.661 11.6467 165 8.3584Z" fill="url(#paint0_linear_553_3750)"/>
<g opacity="0.08">
<path d="M94.3708 35.5164H93.9561V156.587H94.3708V35.5164Z" fill="white"/>
<path d="M58.1184 64.0278H57.7037V156.587H58.1184V64.0278Z" fill="white"/>
<path d="M21.8658 97.9111H21.4511V156.587H21.8658V97.9111Z" fill="white"/>
<path d="M165 117.714H-29.4899V118.127H165V117.714Z" fill="white"/>
<path d="M165 57.5945H63.8153V58.0077H165V57.5945Z" fill="white"/>
</g>
<path d="M165 8V8.8351L164.899 8.84964C141.986 12.1833 116.516 22.3519 88.4922 39.3603L87.6248 39.8884C78.0634 45.7285 70.4443 51.8116 63.6203 58.7181C61.133 61.2355 58.7869 63.8188 56.2419 66.8036L55.3265 67.8845L54.1554 69.2916L48.4104 76.2742L47.8302 76.9714L47.2411 77.6738L46.6517 78.3703L46.0611 79.0615C40.8845 85.0887 36.754 89.0576 31.5135 92.7886C24.199 97.9962 15.3447 102.025 3.74096 105.17L3.24902 105.303C-28.3017 113.73 -54.0336 130.959 -73.9586 157H-75L-74.8314 156.778C-54.766 130.436 -28.8067 113.009 3.03428 104.505C14.788 101.365 23.6984 97.3369 31.0313 92.1162C36.878 87.9535 41.3346 83.4835 47.4816 76.0963L53.4226 68.878L54.6149 67.4442L54.8372 67.1797L55.6106 66.2676C58.1675 63.2688 60.5267 60.6712 63.0293 58.1383C69.8998 51.1848 77.5716 45.0596 87.1913 39.1838C115.736 21.7485 141.671 11.3522 165 8Z" fill="#FFB200"/>
<path d="M40.1711 86.0775C41.056 86.0775 41.7734 85.3622 41.7734 84.4797C41.7734 83.5972 41.056 82.8818 40.1711 82.8818C39.2862 82.8818 38.5688 83.5972 38.5688 84.4797C38.5688 85.3622 39.2862 86.0775 40.1711 86.0775Z" fill="#101218"/>
<path fill-rule="evenodd" clip-rule="evenodd" d="M40.1711 83.3679C39.5559 83.3679 39.0566 83.8653 39.0566 84.4797C39.0566 85.0941 39.5559 85.5915 40.1711 85.5915C40.7863 85.5915 41.2856 85.0941 41.2856 84.4797C41.2856 83.8653 40.7863 83.3679 40.1711 83.3679ZM38.081 84.4797C38.081 83.3291 39.0164 82.3958 40.1711 82.3958C41.3258 82.3958 42.2612 83.3291 42.2612 84.4797C42.2612 85.6302 41.3258 86.5636 40.1711 86.5636C39.0164 86.5636 38.081 85.6302 38.081 84.4797Z" fill="#FFB200"/>
<path d="M89.1857 39.9121C90.0707 39.9121 90.788 39.1967 90.788 38.3142C90.788 37.4318 90.0707 36.7164 89.1857 36.7164C88.3008 36.7164 87.5834 37.4318 87.5834 38.3142C87.5834 39.1967 88.3008 39.9121 89.1857 39.9121Z" fill="#101218"/>
<path fill-rule="evenodd" clip-rule="evenodd" d="M89.1857 37.2024C88.5705 37.2024 88.0712 37.6999 88.0712 38.3142C88.0712 38.9286 88.5705 39.426 89.1857 39.426C89.8009 39.426 90.3002 38.9286 90.3002 38.3142C90.3002 37.6998 89.8009 37.2024 89.1857 37.2024ZM87.0956 38.3142C87.0956 37.1637 88.031 36.2303 89.1857 36.2303C90.3404 36.2303 91.2758 37.1637 91.2758 38.3142C91.2758 39.4648 90.3404 40.3981 89.1857 40.3981C88.031 40.3981 87.0956 39.4648 87.0956 38.3142Z" fill="#FFB200"/>
<path d="M26 12C33.732 12 40 18.268 40 26C40 33.732 33.732 40 26 40C23.3285 40 20.8318 39.2517 18.708 37.9534L21.5461 33H26.6314C30.4974 33 33.6314 29.866 33.6314 26C33.6314 22.134 30.4974 19 26.6314 19H24.0784C23.2446 19 22.5686 19.676 22.5686 20.5098C22.5686 21.3436 23.2446 22.0196 24.0784 22.0196H26.6314C28.8297 22.0196 30.6118 23.8017 30.6118 26C30.6118 28.1983 28.8297 29.9804 26.6314 29.9804H21.1412C20.4374 29.9804 19.8461 30.4619 19.6788 31.1135C19.6665 31.1486 19.6555 31.1845 19.6457 31.221L17.971 37.4703C14.3604 34.9383 12 30.7448 12 26C12 18.268 18.268 12 26 12ZM26.6314 24.0784H23.0353C21.974 24.0784 21.1137 24.9387 21.1137 26C21.1137 27.0613 21.974 27.9216 23.0353 27.9216H26.6314C27.6926 27.9216 28.5529 27.0613 28.5529 26C28.5529 24.9387 27.6926 24.0784 26.6314 24.0784Z" fill="#FFB306"/>
<g filter="url(#filter0_d_553_3750)">
<circle cx="41" cy="87" r="29" fill="white"/>
</g>
<g clip-path="url(#clip1_553_3750)">
<mask id="mask0_553_3750" style="mask-type:luminance" maskUnits="userSpaceOnUse" x="25" y="71" width="32" height="32">
<path d="M57 71H25V103H57V71Z" fill="white"/>
</mask>
<g mask="url(#mask0_553_3750)">
<path d="M51.0544 91.3553C51.5574 91.8611 51.9685 92.4106 52.2592 93.0021C53.186 94.8867 52.8452 96.9645 50.9961 98.7771C48.8782 100.853 45.273 102.13 41.0873 102.129C36.9016 102.127 33.2974 100.848 31.1803 98.7698C29.334 96.9563 28.9941 94.8776 29.9218 92.9939C30.2125 92.4034 30.619 91.8575 31.1238 91.3463C30.5324 91.9176 30.0658 92.4234 29.6411 93.2718C28.7353 95.0826 29.0242 97.6699 30.9334 99.5454C33.1032 101.677 36.4979 102.962 41.1219 102.964C45.7578 102.966 49.1534 101.645 51.2349 99.5536C53.2762 97.5022 53.3555 94.8329 52.5198 93.2226C52.1717 92.5528 51.7032 91.9359 51.0544 91.3553Z" fill="#FF6600"/>
<g opacity="0.85">
<path d="M29.6367 93.2611C28.7401 95.0785 29.0268 97.6772 30.9281 99.5422C33.1081 101.676 36.4919 102.966 41.1289 102.961C45.7599 102.972 49.1481 101.637 51.2296 99.5506C52.5161 98.2673 53.02 96.7593 53.0176 95.4073C53.0082 94.597 52.8361 93.8221 52.5259 93.2228C52.167 92.5497 51.7119 91.9359 51.0546 91.3622C51.5516 91.8596 51.9748 92.4057 52.2684 92.999C53.1859 94.886 52.8533 96.9622 51.0016 98.7744C48.8869 100.849 45.2766 102.123 41.0923 102.122C36.9079 102.121 33.2949 100.842 31.186 98.7716C29.3227 96.9578 29.0019 94.8722 29.9223 92.9883C30.2096 92.3971 30.6133 91.8477 31.1333 91.3402C30.5336 91.913 30.0693 92.4219 29.6367 93.2611Z" fill="url(#paint1_linear_553_3750)"/>
</g>
<path d="M47.657 89.1727C45.6959 88.3589 43.4112 87.9397 41.0928 87.9388C38.7735 87.9378 36.4888 88.3553 34.5267 89.1681C32.3796 90.0576 30.7183 91.3781 29.9218 92.9929C28.9941 94.8766 29.334 96.9554 31.1803 98.7689C33.2974 100.847 36.9016 102.126 41.0873 102.128C45.273 102.13 48.8782 100.853 50.997 98.7762C52.8452 96.9644 53.186 94.8858 52.2592 93.0021C51.4636 91.3854 49.8032 90.0639 47.657 89.1727Z" fill="#FF6600"/>
<path d="M41.0892 87.9396C38.7617 87.9384 36.492 88.3529 34.5216 89.1711C32.3794 90.0501 30.7116 91.3779 29.9158 92.9934C28.9993 94.8736 29.3358 96.9591 31.1747 98.7652C31.304 98.8946 31.448 99.0214 31.592 99.1481C39.3759 98.6913 43.4553 94.125 41.4804 90.0764C41.0989 89.2916 41.1687 88.5645 41.2567 87.9405L41.0892 87.9396Z" fill="url(#paint2_linear_553_3750)"/>
<path fill-rule="evenodd" clip-rule="evenodd" d="M36.2801 96.0166C37.587 95.0761 38.922 94.1785 40.2945 93.3346C40.3346 93.5096 40.3747 93.6846 40.4138 93.8596C39.0123 94.5321 37.6353 95.2539 36.2801 96.0166ZM41.2058 92.7832C38.9548 92.8142 37.1978 92.9154 35.0043 93.1031C36.8989 93.1104 38.3707 93.1815 40.2945 93.3346C40.5962 93.1478 40.9005 92.9646 41.2058 92.7832ZM46.1324 96.0184C44.8283 95.0771 43.4942 94.1757 42.1253 93.331C42.4051 93.3082 42.6849 93.2881 42.9656 93.269C44.0528 94.1493 45.1053 95.0689 46.1324 96.0184ZM41.0882 92.7842C41.1357 94.3517 41.1922 96.0157 41.2058 97.5331C41.4974 96.1296 41.8009 94.7281 42.1253 93.331C41.82 93.146 41.3963 92.9637 41.0882 92.7842ZM45.4963 90.5715C44.3343 91.0818 43.2025 91.656 42.0934 92.272C42.0488 92.1198 42.0032 91.9676 41.9577 91.8164C43.1196 91.3543 44.2988 90.9342 45.4963 90.5715ZM41.2058 92.7832C43.4422 92.7887 45.6758 92.8999 47.9003 93.1241C45.9474 92.7714 44.051 92.5007 42.0934 92.272C41.7954 92.4388 41.4993 92.6101 41.2058 92.7832ZM36.9144 90.5687C38.0745 91.0818 39.2045 91.6578 40.3118 92.2747C40.0366 92.303 39.7613 92.3322 39.4862 92.3632C38.6523 91.7316 37.7984 91.1283 36.9144 90.5687ZM41.2058 92.7832C41.2058 91.7016 41.2067 90.6189 41.2067 89.5362C40.8768 90.4384 40.5861 91.3543 40.3118 92.2747C40.6116 92.4415 40.9097 92.6111 41.2058 92.7832ZM36.0696 90.2115C37.5186 90.5797 38.8956 91.0189 40.2972 91.5366C40.5743 90.7036 40.8695 89.8762 41.2067 89.0642C41.543 89.8762 41.8373 90.7027 42.1144 91.5357C43.516 91.0199 44.8684 90.5997 46.3174 90.2325C45.2985 90.8713 44.3972 91.5311 43.4522 92.2739C45.3678 92.519 47.1603 92.8361 49.0468 93.2453C47.1667 93.2034 45.396 93.2699 43.5197 93.3893C44.8429 94.5121 45.9757 95.5974 47.2059 96.8195C45.52 95.8562 43.9361 95.0461 42.1791 94.2149C41.8373 95.6849 41.5157 97.1585 41.204 98.6349C40.8942 97.1594 40.6098 95.7542 40.269 94.2851C38.511 95.1144 36.9117 95.9046 35.1692 96.8286C36.4013 95.6074 37.5678 94.5494 38.8929 93.4276C37.0155 93.3064 35.2148 93.2799 33.2928 93.2526C35.1783 92.8452 37.042 92.5281 38.9567 92.2839C38.0135 91.5411 37.0875 90.8512 36.0696 90.2115Z" fill="white"/>
<path fill-rule="evenodd" clip-rule="evenodd" d="M41.4245 101.697C41.3589 101.746 41.2687 101.795 41.2031 101.844C41.1366 101.795 41.0454 101.746 40.978 101.697C40.9798 101.089 40.9771 100.48 40.9789 99.8724C41.0445 99.8277 41.1384 99.7831 41.204 99.7375C41.2687 99.7831 41.3571 99.8277 41.4218 99.8724C41.4227 100.481 41.4236 101.089 41.4245 101.697Z" fill="white"/>
<path fill-rule="evenodd" clip-rule="evenodd" d="M30.5962 97.2807C30.5607 97.3491 30.5251 97.4174 30.4896 97.4867C30.5561 97.5122 30.6846 97.5532 30.742 97.5769C31.3799 97.2369 32.0106 96.8979 32.6375 96.5699C32.6622 96.4733 32.6767 96.4204 32.7032 96.3475C32.6385 96.3311 32.5747 96.3138 32.51 96.2965C31.8693 96.6145 31.2314 96.9426 30.5962 97.2807Z" fill="white"/>
<path fill-rule="evenodd" clip-rule="evenodd" d="M30.1278 93.5369C30.0695 93.5834 30.0112 93.6298 29.9538 93.6763C29.9857 93.7191 30.0203 93.7692 30.0504 93.8102C30.6464 93.7246 31.2424 93.6517 31.8393 93.5916C31.894 93.5378 31.9614 93.4731 32.0142 93.4239C31.9796 93.3874 31.945 93.3519 31.9095 93.3164C31.3153 93.3774 30.722 93.4512 30.1278 93.5369Z" fill="white"/>
<path fill-rule="evenodd" clip-rule="evenodd" d="M32.417 90.5168C32.3569 90.5423 32.2967 90.5688 32.2366 90.5943C32.242 90.6307 32.2484 90.6963 32.2539 90.7319C32.6932 90.7938 33.1315 90.8686 33.5689 90.9533C33.6245 90.9205 33.701 90.8759 33.7539 90.8476C33.7457 90.8093 33.7384 90.7711 33.7302 90.7328C33.2937 90.6498 32.8554 90.5769 32.417 90.5168Z" fill="white"/>
<path fill-rule="evenodd" clip-rule="evenodd" d="M45.8352 88.6614C45.8908 88.6623 45.9464 88.6623 46.002 88.6632C46.0248 88.6851 46.0467 88.7069 46.0685 88.7297C45.8389 88.8746 45.6129 89.0268 45.3905 89.1836C45.3322 89.1836 45.2739 89.1844 45.2155 89.1854C45.1937 89.1608 45.1718 89.1361 45.1508 89.1116C45.375 88.9566 45.6028 88.8053 45.8352 88.6614Z" fill="white"/>
<path fill-rule="evenodd" clip-rule="evenodd" d="M41.0509 88.0263C41.0928 88.0134 41.1347 88.0007 41.1766 87.9879C41.2195 88.0007 41.2623 88.0134 41.3042 88.0263C41.306 88.2048 41.3079 88.3844 41.3088 88.563C41.2641 88.5776 41.2204 88.5931 41.1766 88.6076C41.1329 88.5931 41.0892 88.5776 41.0463 88.563C41.0472 88.3844 41.049 88.2048 41.0509 88.0263Z" fill="white"/>
<path fill-rule="evenodd" clip-rule="evenodd" d="M36.2474 88.7371C36.2692 88.7152 36.3175 88.676 36.3394 88.6541C36.395 88.6541 36.4515 88.6533 36.508 88.6523C36.7394 88.7963 36.9673 88.9476 37.1915 89.1034C37.1687 89.128 37.1468 89.1517 37.1249 89.1772C37.0666 89.1763 36.9819 89.1918 36.9254 89.1909C36.703 89.0342 36.477 88.8829 36.2474 88.7371Z" fill="white"/>
<path fill-rule="evenodd" clip-rule="evenodd" d="M34.8448 100.581C34.7546 100.602 34.6397 100.602 34.5495 100.623C34.5304 100.56 34.4849 100.496 34.4657 100.432C34.9114 99.8998 35.3624 99.3721 35.8199 98.8481C35.9083 98.829 36.0232 98.8099 36.1115 98.7916C36.1325 98.8463 36.1735 98.9393 36.1972 98.9903C35.7406 99.5171 35.2895 100.047 34.8448 100.581Z" fill="white"/>
<path fill-rule="evenodd" clip-rule="evenodd" d="M51.6641 97.2879C51.6996 97.3562 51.7352 97.4245 51.7707 97.4938C51.7042 97.5194 51.5757 97.5604 51.5183 97.584C50.8803 97.2432 50.2497 96.9033 49.6227 96.5752C49.599 96.4786 49.5845 96.4257 49.5571 96.3537C49.6218 96.3364 49.6865 96.3191 49.7503 96.3027C50.391 96.6208 51.0289 96.9489 51.6641 97.2879Z" fill="white"/>
<path fill-rule="evenodd" clip-rule="evenodd" d="M52.1352 93.5453C52.1936 93.5918 52.2519 93.6383 52.3093 93.6856C52.2774 93.7276 52.2419 93.7777 52.2127 93.8187C51.6167 93.7331 51.0207 93.6601 50.4238 93.5991C50.3691 93.5453 50.3017 93.4806 50.2488 93.4305C50.2835 93.3949 50.319 93.3594 50.3536 93.3239C50.9478 93.3849 51.542 93.4588 52.1352 93.5453Z" fill="white"/>
<path fill-rule="evenodd" clip-rule="evenodd" d="M49.8479 90.5233C49.908 90.5488 49.9682 90.5752 50.0283 90.6007C50.0228 90.6372 50.0164 90.7028 50.011 90.7383C49.5717 90.8003 49.1334 90.8741 48.6959 90.9589C48.6394 90.9261 48.5638 90.8814 48.5109 90.8531C48.5192 90.8149 48.5264 90.7766 48.5337 90.7383C48.9712 90.6554 49.4095 90.5834 49.8479 90.5233Z" fill="white"/>
<path fill-rule="evenodd" clip-rule="evenodd" d="M47.4137 100.585C47.4866 100.596 47.6187 100.614 47.709 100.628C47.7381 100.566 47.7664 100.502 47.7928 100.437C47.348 99.9044 46.897 99.3768 46.4395 98.8519C46.3511 98.8327 46.2372 98.8136 46.1479 98.7954C46.1269 98.85 46.0868 98.943 46.0622 98.994C46.5188 99.5208 46.969 100.05 47.4137 100.585Z" fill="white"/>
<path d="M41.0442 88.0246V88.1141C41.0889 88.1141 41.1336 88.0918 41.1783 88.0918C41.223 88.0918 41.2677 88.1141 41.3124 88.1141L41.3125 88.0247C41.2677 88.0247 41.223 88.0023 41.1784 87.9799C41.1336 88.0023 41.0889 88.0246 41.0442 88.0246ZM36.3491 88.6489C36.3267 88.6713 36.2596 88.716 36.2372 88.7383C36.2596 88.7383 36.282 88.7606 36.3043 88.783C36.3043 88.7606 36.349 88.7383 36.349 88.7383C36.3937 88.7383 36.4609 88.7384 36.5055 88.7384C36.729 88.8726 36.9302 89.0068 37.1314 89.1634C37.1537 89.141 37.1761 89.1187 37.1985 89.0963C36.975 88.9398 36.7291 88.8055 36.5055 88.649C36.4609 88.649 36.3938 88.6489 36.3491 88.6489ZM45.1574 89.1216C45.1574 89.1216 45.1797 89.144 45.2021 89.1663C45.4034 89.0323 45.627 88.8982 45.8282 88.7641C45.8953 88.7642 45.94 88.7642 46.0071 88.7642C46.0294 88.7642 46.0518 88.7419 46.0742 88.7195C46.0518 88.6971 46.0295 88.6971 46.0071 88.6525C45.94 88.6524 45.8954 88.6524 45.8283 88.6524C45.6047 88.8088 45.381 88.9652 45.1574 89.1216ZM41.1557 88.7401C38.0705 88.739 33.174 89.8103 32.3679 93.3423C31.3826 97.7462 37.9772 99.403 41.1518 99.4042C44.3488 99.4053 50.9446 97.7757 49.9625 93.3488C49.159 89.8161 44.2409 88.7412 41.1557 88.7401ZM32.6809 93.3201C33.4423 89.8998 38.2046 88.8731 41.1557 88.8742C44.1291 88.8753 48.8907 89.9055 49.6272 93.3263C50.5646 97.5744 44.2371 99.137 41.1519 99.1359C38.089 99.1348 31.7627 97.5675 32.6809 93.3201ZM40.3052 91.5343C38.8969 91.0196 37.5109 90.572 36.0802 90.2138C36.1249 90.2361 36.1696 90.2809 36.2144 90.3033C37.6227 90.6615 38.9415 91.0867 40.3051 91.6014C40.5737 90.752 40.8647 89.9249 41.2003 89.1201C41.5354 89.9251 41.848 90.7525 42.116 91.5797C43.4799 91.0884 44.7768 90.6865 46.163 90.3293C46.2301 90.2845 46.2748 90.2622 46.3195 90.2399C44.8662 90.597 43.5247 91.0213 42.116 91.535C41.848 90.7077 41.5354 89.8804 41.2003 89.0531C40.8647 89.8801 40.5737 90.7073 40.3052 91.5343ZM32.2347 90.5924C32.2347 90.6371 32.2347 90.6595 32.2571 90.6818C32.3018 90.6595 32.3689 90.6372 32.4136 90.6148C32.8607 90.6821 33.7549 90.8613 33.7549 90.8389C33.7549 90.8165 33.7326 90.7718 33.7326 90.7271C33.2855 90.6599 32.8607 90.5703 32.4136 90.5254C32.3465 90.5478 32.3019 90.5701 32.2347 90.5924ZM48.5327 90.7325C48.5327 90.7772 48.5103 90.822 48.5102 90.8443C48.5102 90.8666 49.4046 90.6881 49.8517 90.6212C49.8964 90.6436 49.9635 90.666 50.0082 90.6883C50.0305 90.666 50.0306 90.6436 50.0306 90.599C49.9635 90.5766 49.9189 90.5542 49.8518 90.5318C49.4046 90.5763 48.9798 90.6656 48.5327 90.7325ZM36.9073 90.6388C37.8013 91.1981 38.6507 91.802 39.4776 92.4283C39.7682 92.4061 40.0365 92.3615 40.3049 92.3392C40.573 92.4958 40.8413 92.63 41.0872 92.7866C41.1319 92.7866 41.1766 92.7866 41.1989 92.7866L40.3045 93.3452V93.39C40.5952 93.2112 40.9082 93.0325 41.1989 92.8537V92.7866C40.9084 92.6077 40.6178 92.4287 40.3049 92.2721L39.4777 92.3613C38.6507 91.735 37.8014 91.131 36.9073 90.5718V90.6388ZM42.0934 92.2728C42.1157 92.2728 42.1381 92.2728 42.1828 92.2728C43.2562 91.692 44.3519 91.1334 45.4922 90.6196V90.5749C44.3295 91.0887 43.2115 91.6472 42.0934 92.2728ZM41.9594 91.8703C42.004 92.0045 42.0711 92.1386 42.0934 92.2728C42.0487 92.1163 42.0041 91.9598 41.9594 91.8256V91.8703ZM43.4571 92.3403C45.2679 92.5646 46.9445 92.8558 48.7329 93.2365C48.8224 93.2366 48.9565 93.2366 49.0459 93.2366C47.1681 92.8335 45.3574 92.5199 43.4572 92.2733L43.4571 92.3403ZM38.8964 92.294C36.996 92.5392 35.1627 92.8515 33.2845 93.2532C33.374 93.2533 33.4857 93.2533 33.5975 93.2533C35.3862 92.874 37.1301 92.584 38.9634 92.3387L38.9635 92.294H38.8964ZM41.1989 92.7866H41.2437C41.2437 92.7866 41.2213 92.7866 41.1989 92.7866ZM41.1989 92.7866L41.3107 92.8538C43.5017 92.8546 45.7149 92.9671 47.9058 93.1915V93.1245C45.6702 92.9001 43.4346 92.7875 41.1989 92.7866ZM35.006 93.0974V93.1645C36.7499 93.1427 38.4936 93.2328 40.215 93.3899C40.2374 93.3676 40.2821 93.3452 40.3045 93.3452C38.6502 93.1881 36.9958 93.0981 35.3637 93.0975C35.2296 93.0975 35.1179 93.0974 35.006 93.0974ZM30.1322 93.5427C30.0651 93.5874 30.0203 93.6321 29.9532 93.6768C29.9756 93.6991 29.9756 93.7215 29.9979 93.7439C30.0203 93.6991 30.1098 93.6545 30.1545 93.6098C30.7358 93.543 31.3171 93.4537 31.9207 93.4092C31.9207 93.4092 31.9654 93.454 31.9878 93.454L32.0102 93.4316C31.9878 93.3869 31.9431 93.3421 31.8984 93.3198C31.3171 93.3866 30.7135 93.4535 30.1322 93.5427ZM50.2531 93.4383L50.2755 93.4606C50.2979 93.4606 50.3425 93.416 50.3425 93.416C50.9462 93.4609 51.5274 93.5506 52.1087 93.6178C52.1534 93.6626 52.2428 93.7073 52.2651 93.752C52.2875 93.7297 52.2875 93.7073 52.3099 93.685C52.2428 93.6403 52.1981 93.5955 52.131 93.5508C51.5498 93.4611 50.9462 93.3938 50.3426 93.3266C50.3202 93.3489 50.2755 93.3936 50.2531 93.4383ZM41.1972 97.5263L41.1972 97.5933C41.4884 96.185 41.8019 94.799 42.1154 93.3906C43.0541 93.9722 44.4175 94.867 46.1385 96.0972V96.0078C44.8199 95.0683 43.5012 94.1736 42.1154 93.3235C41.8019 94.7095 41.4884 96.1403 41.1972 97.5263ZM43.5238 93.4806C44.7977 94.5541 45.8257 95.5382 47.0102 96.7012C47.0549 96.7235 47.1667 96.7906 47.2114 96.813C45.9599 95.583 44.8424 94.5095 43.5685 93.4358L43.5238 93.3911V93.4806ZM35.1612 96.831C35.2059 96.8086 35.3177 96.7416 35.3624 96.7193C36.5478 95.5348 37.6212 94.5962 38.896 93.5012V93.4341C37.5765 94.5291 36.3912 95.6241 35.1612 96.831ZM36.2793 96.0266V96.0936C37.6433 95.334 39.0074 94.5967 40.416 93.9265V93.8595C39.0074 94.5296 37.6434 95.2446 36.2793 96.0266ZM30.6003 97.2765C30.5555 97.3435 30.5332 97.4106 30.4884 97.4776C30.5108 97.5 30.5108 97.5 30.5331 97.5C30.5555 97.4776 30.5779 97.4106 30.6002 97.3882C31.2263 97.0531 31.8524 96.7403 32.5009 96.4276C32.5456 96.4276 32.6127 96.45 32.6574 96.45C32.6797 96.4276 32.6798 96.383 32.7022 96.3382C32.635 96.3382 32.568 96.3158 32.5009 96.2935C31.8749 96.6062 31.2264 96.9413 30.6003 97.2765ZM49.559 96.3444C49.5814 96.3891 49.5814 96.4338 49.6037 96.4562C49.6484 96.4562 49.7155 96.4339 49.7602 96.4339C50.4084 96.7471 51.0343 97.0603 51.6825 97.396C51.6825 97.4183 51.7048 97.4854 51.7272 97.5078C51.7495 97.5078 51.7495 97.5078 51.7719 97.4854C51.7272 97.4183 51.7049 97.3512 51.6602 97.2841C51.0343 96.9486 50.3861 96.613 49.7602 96.2998C49.6932 96.3221 49.6261 96.3445 49.559 96.3444ZM35.8088 98.8433C35.3615 99.3797 34.9142 99.8938 34.4668 100.43C34.4668 100.453 34.4892 100.475 34.4892 100.497C34.7799 100.162 35.4062 99.4245 35.8535 98.9104C35.9205 98.8881 36.0324 98.8881 36.0994 98.8658C36.1217 98.9105 36.1441 98.9776 36.1664 99.0223C36.1888 99 36.1888 99 36.1888 99C36.1888 98.9776 36.1441 98.8435 36.1218 98.7987C36.0324 98.821 35.8982 98.821 35.8088 98.8433ZM46.0704 99.0036C46.0704 99.0036 46.0704 99.0036 46.0927 99.026C46.1151 98.9812 46.1375 98.9141 46.1599 98.8695C46.2493 98.8918 46.3387 98.8919 46.4058 98.9143C46.8527 99.4286 47.4784 100.167 47.769 100.502C47.769 100.48 47.7914 100.457 47.7914 100.435C47.3444 99.8983 46.8975 99.384 46.4505 98.8472C46.3611 98.8248 46.227 98.8248 46.1375 98.8024C46.1152 98.8471 46.0704 98.9812 46.0704 99.0036ZM40.9728 99.8736L40.9721 101.707L41.0175 99.9407C41.0845 99.896 41.1516 99.8736 41.1964 99.829C41.2634 99.8737 41.3305 99.8961 41.3752 99.9408L41.4192 101.707L41.4199 99.8738C41.3529 99.829 41.2635 99.7843 41.1964 99.7395C41.1293 99.7842 41.0399 99.8289 40.9728 99.8736Z" fill="url(#paint3_linear_553_3750)"/>
<path fill-rule="evenodd" clip-rule="evenodd" d="M32.7196 93.4267C33.4678 90.0019 38.2249 88.9876 41.193 88.9886C44.1622 88.9904 48.9174 90.0083 49.6638 93.4331C50.5869 97.6716 44.2615 99.2373 41.1894 99.2354C38.1183 99.2346 31.7937 97.6643 32.7196 93.4267ZM32.3979 93.4522C33.1926 89.9072 37.905 88.8373 41.193 88.8382C44.4702 88.84 49.1926 89.9136 49.9855 93.4595C50.9724 97.8721 44.3854 99.5125 41.1894 99.5116C37.9934 99.5098 31.4082 97.8639 32.3979 93.4522Z" fill="white"/>
<g opacity="0.66">
<path d="M51.6896 94.1904L50.2479 93.9716L50.0575 93.927C49.8151 93.8778 49.353 93.6162 49.1526 93.3046C48.9511 92.9947 48.4654 92.4588 48.2002 92.1253C47.8329 91.6633 46.9936 91.2405 46.8715 91.049C46.7494 90.8586 46.5471 90.5241 46.4906 90.3929C46.435 90.2608 46.3037 90.1523 46.0859 90.166C45.8691 90.1788 45.8499 90.2535 45.664 90.2653C45.4781 90.2763 45.2184 90.2361 45.2184 90.2361C45.1044 90.2134 45.0261 90.1997 44.9477 90.1997C44.8319 90.3901 44.6561 90.5068 44.2278 90.5068C44.1977 90.5068 44.1731 90.5041 44.1531 90.4977C44.1968 90.5934 44.5959 90.6499 44.6634 90.6453C44.7318 90.6417 45.1081 90.7483 45.1938 90.7638C45.3669 90.7948 45.3332 90.7356 45.6111 90.896C46.0714 91.1621 46.7603 91.8956 46.897 92.5318C46.9727 92.8826 47.5741 93.4568 47.6461 93.7803C46.8405 93.7201 45.7688 93.1861 45.7688 93.1861L45.6348 93.1214C45.6348 93.1214 45.1564 92.8799 44.4219 92.8461C43.0349 92.7213 42.5099 92.5363 42.3714 92.4898C42.0852 92.3933 42.1254 92.345 41.8921 92.334C41.8474 92.3313 41.8064 92.3295 41.7663 92.3276C41.7399 92.3805 41.7016 92.4333 41.646 92.4862C41.389 92.7323 41.2113 92.9155 40.9953 93.2499C40.937 93.3392 40.8395 93.3957 40.7201 93.4276C40.9853 93.3665 41.5029 93.2289 41.5029 93.2289C41.9914 93.1633 42.7359 93.382 42.7359 93.382C43.0111 93.4376 43.465 93.6135 43.465 93.6135C43.465 93.6135 45.4389 94.2186 45.9237 94.5713C46.2409 94.8028 47.8821 95.4179 48.3187 95.5683C48.7534 95.7196 49.8132 96.2965 49.8132 96.2965C50.0857 96.5288 51.6714 97.2241 52.1071 97.37C52.6666 96.3994 52.8625 95.4088 52.7067 94.4027H52.7057L51.6896 94.1904Z" fill="#3B2E4F"/>
</g>
<g opacity="0.66">
<path d="M50.9633 92.5481C50.8238 92.5463 50.6635 92.5837 50.6635 92.5837L50.2707 92.8161C50.2215 92.8972 50.3992 93.0029 50.3992 93.0029C50.3992 93.0029 50.8958 93.0357 50.8949 93.1651C51.2595 93.3592 52.0377 93.3829 52.435 93.4021C52.3831 93.2681 52.3239 93.1341 52.2592 93.002C52.1963 92.8735 52.127 92.7477 52.0532 92.6238C52.0304 92.6165 51.7315 92.5317 50.9633 92.5481Z" fill="#3B2E4F"/>
</g>
<g opacity="0.66">
<path d="M48.0289 97.3845C48.0289 97.3845 47.935 97.2633 47.4311 97.2624C47.1121 97.2615 47.5705 98.017 47.5705 98.017C47.8584 98.2102 48.8956 98.5063 49.1115 98.5355C49.3284 98.5638 50.052 98.7798 50.052 98.7798C50.052 98.7798 50.4293 98.8299 50.8166 98.9475C50.8777 98.891 50.9378 98.8345 50.9961 98.777C51.2203 98.5574 51.4217 98.3341 51.6012 98.1081C50.7255 98.089 49.4833 98.0744 48.5411 97.5823C48.4444 97.2998 48.0289 97.3845 48.0289 97.3845Z" fill="#3B2E4F"/>
</g>
<path d="M45.3742 83.6282C45.3742 83.6282 45.0825 83.3639 45.0789 83.3484C45.057 83.2555 45.1609 83.1316 45.1855 82.9757C45.1564 82.9657 45.1254 82.9511 45.0972 82.9384C45.027 82.6704 44.9687 82.1856 45.0972 81.9268C45.1609 81.8001 45.2357 81.6342 45.1919 81.4866C44.9532 80.6637 44.4775 79.9465 44.1421 79.1655C44.051 78.9541 44.0664 78.8009 44.0537 78.5841C43.794 78.2988 43.4942 77.5497 43.3492 77.0877C43.0467 77.8523 42.8462 78.7299 42.8462 78.9331C42.8462 79.7934 43.7174 80.2107 43.4149 81.6406C43.3565 81.9168 43.2527 82.2977 43.1487 82.6923C43.3292 83.6884 43.3292 84.4119 43.5953 85.5666C43.9689 85.9347 44.2797 86.4086 44.4455 87.0101C44.5476 87.3819 44.8611 88.2559 45.2621 88.3871C45.5109 88.4683 44.4191 88.6678 44.1102 88.2805C43.8131 87.9069 43.3 87.6098 43.0567 87.2134C42.8626 86.8971 42.5609 86.2237 42.3714 85.9038L42.1372 87.1295C42.4543 88.4382 42.2648 88.7261 41.9822 89.7878C41.8602 90.2463 40.9352 88.101 40.9342 87.9333C40.9342 87.4676 40.9042 87.2944 40.7957 86.8844C40.6016 86.5062 40.6225 85.9694 40.649 85.5621C40.6937 84.8794 40.6891 83.5945 40.7182 83.2564C40.485 82.6823 39.8871 81.6452 39.827 81.061C39.7349 80.1516 39.889 79.232 39.7623 78.3253C39.6055 78.7791 39.4397 79.3551 39.087 79.7022C38.5575 80.2235 38.07 80.8013 37.5979 81.3718C37.4257 81.6069 37.5769 81.7218 37.3109 82.0981C37.0484 82.4681 37.1887 82.3013 37.134 82.6549C37.1249 82.716 37.0939 82.7643 37.0739 82.7852C36.9326 82.9028 36.7841 83.0039 36.5827 82.9192C36.1935 82.7233 36.1662 82.4344 36.1398 82.0626C36.0887 81.3536 36.6137 81.3199 36.9108 80.8906C37.4949 80.0476 37.7911 78.6333 38.4163 77.9972C38.4555 77.8714 38.6012 77.4176 38.881 76.7414C38.8902 75.902 39.0979 75.1557 39.961 74.8112C40.3145 74.6699 40.7784 74.6344 40.7957 74.1459C40.7975 74.0876 40.7857 73.9372 40.7484 73.8844C40.6062 73.7686 40.5059 73.7659 40.4375 73.6848C40.2982 73.5053 40.1824 72.3506 40.1979 72.2777C40.4011 71.2981 40.8695 70.9718 41.4628 71.0019C42.1645 71.0365 42.7204 71.3737 42.6894 72.316C42.6649 73.0751 41.882 74.0475 43.053 74.4166C43.5005 74.5578 43.5862 74.4603 43.9707 74.8467C44.4018 75.2805 44.5057 76.0506 44.5777 76.7642L45.0179 77.7857C45.8235 79.1436 45.5309 79.5719 45.8271 80.9544C45.9037 81.3116 46.0358 81.6279 46.064 82.4098C46.0777 82.7825 45.7815 83.6146 45.3742 83.6282Z" fill="#FFA55C"/>
<path d="M36.9691 82.6011C37.0056 82.2393 36.9536 82.2703 37.1842 81.934C37.3983 81.6233 37.2954 81.4647 37.484 81.1976C37.9497 80.6171 38.3899 80.0303 38.9121 79.4999C39.2611 79.1454 39.7368 77.9506 39.8479 77.5314C39.8698 77.4694 39.9036 77.4394 39.9172 77.4922C39.9901 78.2932 40.1031 78.9604 40.0749 79.7468C40.0147 81.3981 40.0594 81.225 40.7456 82.7679C40.803 82.1472 40.9525 81.2478 41.3152 80.9425C40.8923 82.5501 40.865 84.8411 40.8203 85.5464C40.7976 85.9055 40.7001 86.4714 40.8723 86.8014C40.9297 87.0256 40.9334 87.3618 40.9388 87.6179C40.9397 87.7737 40.9488 90.4375 40.9488 90.4375L40.7009 91.6742C40.6126 92.0314 40.1514 92.6311 39.8115 92.8179C39.7031 92.8771 39.4488 93.0129 39.4488 93.1341C39.4488 93.3291 40.7073 93.6946 40.9944 93.2499C41.2104 92.9163 41.3881 92.7322 41.646 92.4862C42.0424 92.1071 41.6032 91.7152 41.6551 91.2021C41.7462 90.3054 42.1326 89.528 42.2584 88.6823C42.3349 88.1729 42.3222 87.7236 42.0907 87.1431L42.2584 85.5264C42.4434 85.8053 42.6184 86.2482 42.7952 86.6164C43.1096 87.2716 43.1141 87.3354 43.6572 87.8731C43.8404 88.0535 44.0291 88.2677 44.1676 88.4864C44.4228 88.8938 44.5987 89.2966 44.5759 89.7814C44.3872 90.1222 44.3061 90.1012 44.0646 90.3081C44.0719 90.3191 43.9972 90.5077 44.2269 90.5077C45.0461 90.5077 44.945 90.0802 45.2548 89.5253C45.4553 89.1671 46.0294 88.6222 45.3997 88.4326C45.2019 88.3734 45.0161 88.2549 44.9012 88.0635C44.4647 87.3336 44.4483 87.3518 44.2214 86.6801C44.0837 86.2737 43.804 85.9447 43.4741 85.6777C43.2718 85.2193 43.1925 84.8931 43.1269 84.4064C43.0394 83.7457 42.9802 83.2728 42.8681 82.5974C43.1879 81.3298 43.352 81.0619 42.8088 79.8434C42.684 79.5627 42.6138 79.2638 42.6138 78.9339C42.6138 78.5275 42.8371 77.618 43.054 77.1468C43.1296 76.9545 43.2362 76.7741 43.3848 76.7167C43.5169 77.2088 43.9707 78.2194 44.2341 78.4673C44.2506 78.666 44.2424 78.8665 44.3207 79.0542C44.6524 79.8516 45.13 80.5771 45.3678 81.4172C45.4489 81.7062 45.3405 81.8456 45.2584 82.0789C45.2329 82.191 45.2266 82.5145 45.2758 82.7551L45.3897 82.8171C45.3696 82.8909 45.3195 83.0941 45.2785 83.188C45.2931 83.3019 45.4334 83.3666 45.4334 83.3666C45.6166 83.3256 45.8772 82.6658 45.8681 82.4015C45.8399 81.5922 45.6704 81.2314 45.6221 80.9899C45.3532 79.6183 45.5091 79.2419 44.7417 77.9142L44.3061 76.8352C44.2524 76.2829 44.0327 75.0225 43.3246 74.7956C43.2062 74.7574 43.0868 74.7501 42.9064 74.6926C41.9814 74.3919 41.9841 73.6802 42.2366 72.9046C42.4616 72.2129 42.4917 71.3982 41.4747 71.3117C40.8449 71.2588 40.6536 71.7536 40.5187 72.3241C40.5232 72.387 40.5542 73.3138 40.6909 73.5134C40.9607 73.7139 41.1111 73.6556 41.0946 74.1559C41.0801 74.5769 40.8121 74.8257 40.4485 74.9533C39.8571 75.1611 39.5545 75.2832 39.3549 75.8938C39.2921 76.0851 39.2383 76.3604 39.2364 76.7714V76.7987C39.0669 77.2179 38.8537 77.6982 38.7243 78.1484C37.9962 78.8783 37.6334 80.5397 36.8953 81.2414C36.405 81.708 36.2574 81.7371 36.4369 82.4562C36.4551 82.5291 36.6893 82.7159 36.7394 82.7423C36.7759 82.756 36.97 82.643 36.9691 82.6011Z" fill="#000FAA"/>
</g>
</g>
<g filter="url(#filter1_d_553_3750)">
<circle cx="87" cy="87" r="29" fill="white"/>
</g>
<path fill-rule="evenodd" clip-rule="evenodd" d="M73.97 79.1875H100.017C101.666 79.1875 103 80.5218 103 82.1702V92.113C103 93.7614 101.666 95.0959 100.017 95.0959H90.6763L91.9583 98.2357L86.3197 95.0959H73.983C72.3345 95.0959 71.0001 93.7614 71.0001 92.113V82.1702C70.9871 80.5349 72.3213 79.1875 73.9698 79.1875H73.97Z" fill="#9B5C8F"/>
<path d="M72.5963 81.8955C72.7792 81.6468 73.0541 81.5161 73.4203 81.4899C74.0874 81.4376 74.4669 81.7516 74.5585 82.4319C74.9641 85.1661 75.4088 87.4817 75.8799 89.3788L78.7449 83.9235C79.0065 83.4261 79.3338 83.1646 79.7261 83.1383C80.3018 83.0991 80.6549 83.4654 80.7988 84.2373C81.1259 85.9773 81.5445 87.4556 82.0417 88.7117C82.3819 85.3886 82.9575 82.9944 83.7687 81.5161C83.9649 81.1498 84.2526 80.9666 84.632 80.9406C84.933 80.9143 85.2077 81.0059 85.4562 81.2021C85.7049 81.3985 85.8358 81.647 85.8618 81.9477C85.8748 82.1834 85.8358 82.3796 85.7309 82.5758C85.2208 83.5177 84.8021 85.1008 84.4618 87.2986C84.135 89.4311 84.0172 91.0926 84.0958 92.2832C84.1218 92.6102 84.0694 92.898 83.9386 93.1464C83.7817 93.4344 83.5463 93.5913 83.2453 93.6174C82.9052 93.6436 82.5519 93.4867 82.2118 93.1334C80.9952 91.8906 80.0269 90.0327 79.3205 87.5602C78.4703 89.2347 77.8422 90.4908 77.4366 91.3281C76.6649 92.8064 76.0106 93.5651 75.4613 93.6044C75.108 93.6306 74.807 93.3296 74.5455 92.7018C73.8784 90.9878 73.1588 87.6781 72.3868 82.772C72.3476 82.4319 72.4129 82.1309 72.5961 81.8957L72.5963 81.8955ZM100.724 83.9495C100.253 83.1253 99.5592 82.6281 98.6304 82.4317C98.3982 82.3813 98.1614 82.355 97.9238 82.3534C96.6679 82.3534 95.6475 83.0075 94.8495 84.3159C94.1692 85.4278 93.8291 86.6577 93.8291 88.0051C93.8291 89.0125 94.0383 89.8758 94.4571 90.5954C94.9281 91.4197 95.6214 91.9168 96.5503 92.113C96.799 92.1653 97.0343 92.1916 97.2569 92.1916C98.5258 92.1916 99.5462 91.5373 100.331 90.2291C101.012 89.1041 101.352 87.8742 101.352 86.5268C101.352 85.5064 101.142 84.6559 100.724 83.9495H100.724ZM99.0753 87.5732C98.8921 88.4367 98.5651 89.0778 98.0809 89.5095C97.7016 89.8497 97.3483 89.9936 97.0212 89.9281C96.7074 89.863 96.4457 89.5881 96.2495 89.0778C96.0924 88.6722 96.0138 88.2666 96.0138 87.8873C96.0138 87.5602 96.0401 87.2332 96.1054 86.9324C96.2233 86.3959 96.4457 85.8725 96.7988 85.3756C97.2306 84.7345 97.6885 84.4727 98.1594 84.5643C98.4733 84.6299 98.735 84.9046 98.9312 85.4148C99.0883 85.8202 99.1668 86.226 99.1668 86.6052C99.1668 86.9454 99.1274 87.2723 99.0753 87.5732ZM92.5209 83.9495C92.0498 83.1253 91.3434 82.6281 90.4276 82.4317C90.1954 82.3813 89.9586 82.355 89.721 82.3534C88.4653 82.3534 87.4448 83.0075 86.6468 84.3159C85.9664 85.4278 85.6263 86.6577 85.6263 88.0051C85.6263 89.0125 85.8356 89.8758 86.2544 90.5954C86.7253 91.4197 87.4187 91.9168 88.3475 92.113C88.5962 92.1653 88.8317 92.1916 89.0541 92.1916C90.323 92.1916 91.3434 91.5373 92.1284 90.2291C92.8087 89.1041 93.1488 87.8742 93.1488 86.5268C93.1488 85.5064 92.9396 84.6559 92.5209 83.9495ZM90.8725 87.5732C90.6893 88.4367 90.3623 89.0778 89.8781 89.5095C89.4988 89.8497 89.1455 89.9936 88.8184 89.9281C88.5046 89.863 88.2429 89.5881 88.0467 89.0778C87.8896 88.6722 87.8111 88.2666 87.8111 87.8873C87.8111 87.5602 87.8373 87.2332 87.9026 86.9324C88.0204 86.3959 88.2429 85.8725 88.596 85.3756C89.0279 84.7345 89.4858 84.4727 89.9567 84.5643C90.2705 84.6299 90.5322 84.9046 90.7284 85.4148C90.8855 85.8202 90.9641 86.226 90.9641 86.6052C90.9641 86.9454 90.9378 87.2723 90.8725 87.5732Z" fill="white"/>
</g>
<defs>
<filter id="filter0_d_553_3750" x="0" y="46" width="82" height="82" filterUnits="userSpaceOnUse" color-interpolation-filters="sRGB">
<feFlood flood-opacity="0" result="BackgroundImageFix"/>
<feColorMatrix in="SourceAlpha" type="matrix" values="0 0 0 0 0 0 0 0 0 0 0 0 0 0 0 0 0 0 127 0" result="hardAlpha"/>
<feOffset/>
<feGaussianBlur stdDeviation="6"/>
<feComposite in2="hardAlpha" operator="out"/>
<feColorMatrix type="matrix" values="0 0 0 0 0 0 0 0 0 0 0 0 0 0 0 0 0 0 0.24 0"/>
<feBlend mode="normal" in2="BackgroundImageFix" result="effect1_dropShadow_553_3750"/>
<feBlend mode="normal" in="SourceGraphic" in2="effect1_dropShadow_553_3750" result="shape"/>
</filter>
<filter id="filter1_d_553_3750" x="46" y="46" width="82" height="82" filterUnits="userSpaceOnUse" color-interpolation-filters="sRGB">
<feFlood flood-opacity="0" result="BackgroundImageFix"/>
<feColorMatrix in="SourceAlpha" type="matrix" values="0 0 0 0 0 0 0 0 0 0 0 0 0 0 0 0 0 0 127 0" result="hardAlpha"/>
<feOffset/>
<feGaussianBlur stdDeviation="6"/>
<feComposite in2="hardAlpha" operator="out"/>
<feColorMatrix type="matrix" values="0 0 0 0 0 0 0 0 0 0 0 0 0 0 0 0 0 0 0.24 0"/>
<feBlend mode="normal" in2="BackgroundImageFix" result="effect1_dropShadow_553_3750"/>
<feBlend mode="normal" in="SourceGraphic" in2="effect1_dropShadow_553_3750" result="shape"/>
</filter>
<linearGradient id="paint0_linear_553_3750" x1="165" y1="14.7248" x2="-21.4053" y2="143.496" gradientUnits="userSpaceOnUse">
<stop stop-color="#FFB306" stop-opacity="0.4"/>
<stop offset="1" stop-color="#FFB306" stop-opacity="0"/>
</linearGradient>
<linearGradient id="paint1_linear_553_3750" x1="31.1408" y1="92.4169" x2="47.7634" y2="98.3855" gradientUnits="userSpaceOnUse">
<stop stop-color="#FF6600"/>
<stop offset="1" stop-color="#3B2E4F"/>
</linearGradient>
<linearGradient id="paint2_linear_553_3750" x1="27.1788" y1="95.0745" x2="41.9335" y2="92.4785" gradientUnits="userSpaceOnUse">
<stop stop-color="#FFC980"/>
<stop offset="1" stop-color="#FF6600"/>
</linearGradient>
<linearGradient id="paint3_linear_553_3750" x1="29.9528" y1="94.8385" x2="52.3094" y2="94.8467" gradientUnits="userSpaceOnUse">
<stop stop-color="#B06500"/>
<stop offset="1" stop-color="#7C0000"/>
</linearGradient>
<clipPath id="clip0_553_3750">
<rect width="128" height="128" fill="white"/>
</clipPath>
<clipPath id="clip1_553_3750">
<rect width="32" height="32" fill="white" transform="translate(25 71)"/>
</clipPath>
</defs>
</svg>
